<svg width="56" height="196" xmlns="http://www.w3.org/2000/svg" fill="none">
 <g>
  <title>Layer 1</title>
  <path fill="currentColor" d="m3,23.535l0,-19.07c0,-1.54 1.667,-2.502 3,-1.731l19.5,11.266l-19.5,11.266c-1.333,0.77 -3,-0.191 -3,-1.731" id="svg_1"/>
  <path fill="currentColor" fill-rule="evenodd" d="m23.5,42a9.5,9.5 0 1 1 -19,0a9.5,9.5 0 0 1 19,0m1.5,0c0,6.075 -4.925,11 -11,11s-11,-4.925 -11,-11s4.925,-11 11,-11s11,4.925 11,11m-9.5,0a1.5,1.5 0 1 1 -3,0a1.5,1.5 0 0 1 3,0m3,1.5a1.5,1.5 0 1 0 0,-3a1.5,1.5 0 0 0 0,3m-7.5,-1.5a1.5,1.5 0 1 1 -3,0a1.5,1.5 0 0 1 3,0m4.8,17.7c0,0.373 -0.12,0.717 -0.323,0.998c1.213,0.19 2.33,0.657 3.223,1.402c1.6,1.3 2.6,3.3 2.7,5.4l0.1,3.8l0,0.1c1.6,0.6 2.7,2.1 2.7,3.9l0,0.5c-0.39,2.541 -5.177,3.267 -8.1,3.486c0.06,0.19 0.1,0.392 0.1,0.614c0,1.1 -1,2.1 -2.1,2.1s-2.1,-0.9 -2.1,-2.1q-0.002,-0.323 0.065,-0.602c-3.105,-0.203 -8.265,-0.909 -8.265,-3.798l0,-0.3c0,-1.8 1.2,-3.3 2.7,-3.8l0,-0.1l0.2,-3.9q0.15,-2.55 1.8,-4.5c1.031,-1.19 2.503,-2.002 4.166,-2.287a1.7,1.7 0 1 1 3.134,-0.913m-1.8,2.3l0.3,0c1.3,0 2.6,0.4 3.6,1.2c1.3,1 2.1,2.6 2.2,4.3l0.1,3.8c-1.3,0.4 -3.2,0.7 -6.1,0.7c-2.8,0 -4.7,-0.3 -6,-0.7l0.2,-3.8c0,-1.4 0.5,-2.7 1.4,-3.6c1.1,-1.3 2.7,-1.9 4.3,-1.9m-6.4,10.6c1.6,0.5 3.7,0.8 6.5,0.8s5,-0.3 6.6,-0.7c1.3,0.2 2.2,1.3 2.2,2.7l0,0.3c-0.2,1.1 -3,2 -6.9,2.2l-3.8,0c-3.9,-0.2 -6.9,-1.2 -6.9,-2.3l0,-0.2c0,-1.5 1,-2.6 2.3,-2.8m8.2,15.1c0,0.3 -0.078,0.581 -0.214,0.825c1.015,0.201 1.965,0.638 2.814,1.275c1.5,1.2 2.4,3 2.5,5l0.2,4.3c-1.4,0.4 -3.7,0.8 -7,0.8s-5.5,-0.4 -7,-0.8l0.2,-4.4c0,-1.6 0.6,-3 1.6,-4.1c0.982,-1.133 2.306,-1.81 3.714,-2.073a1.7,1.7 0 1 1 3.186,-0.827m0.4,19c4.4,-0.3 7.8,-1.3 7.9,-2.6l0,-0.3c0,-1.5 -1.1,-2.8 -2.6,-3.1c-1.8,0.5 -4.3,0.9 -7.6,0.9c-3.2,0 -5.7,-0.4 -7.5,-0.9c-1.3,0.3 -2.5,1.5 -2.5,3.1l0,0.3c0,1.3 3.4,2.4 8,2.7l0.286,-0.007a2.5,2.5 0 0 0 -0.286,1.107c0,1.1 1,2.1 2.2,2.1s2.1,-1 2.1,-2.1c0,-0.455 -0.166,-0.827 -0.346,-1.192l0.346,-0.008zm-2.692,8.813a10.43,10.43 0 0 1 8.992,4.292l0,-3.555a0.75,0.75 0 0 1 1.5,0l0,5.75l-5.75,0a0.75,0.75 0 0 1 0,-1.5l2.898,0a8.93,8.93 0 0 0 -7.565,-3.488c-3.356,0.167 -6.13,2.093 -7.652,4.882a0.75,0.75 0 1 1 -1.317,-0.718c1.752,-3.211 4.977,-5.467 8.894,-5.663m-8.758,14.487l-0.75,0l0,5.75a0.75,0.75 0 0 0 1.5,0l0,-3.565a10.43,10.43 0 0 0 8.992,4.291c3.906,-0.195 7.235,-2.443 8.902,-5.678a0.75,0.75 0 0 0 -1.333,-0.687c-1.425,2.765 -4.277,4.699 -7.644,4.867a8.93,8.93 0 0 1 -7.557,-3.478l2.89,0a0.75,0.75 0 0 0 0,-1.5l-5,0zm7.25,13c-4.95,0 -9,4.05 -9,9s4.05,9 9,9c1.937,0 3.735,-0.62 5.208,-1.671l0.315,0.315l4.916,4.917a1.501,1.501 0 0 0 2.122,-2.122l-4.917,-4.916l-0.315,-0.315a8.94,8.94 0 0 0 1.671,-5.208c0,-4.95 -4.05,-9 -9,-9m7.5,9a7.5,7.5 0 1 1 -15,0a7.5,7.5 0 0 1 15,0m-1.5,30a4,4 0 1 1 -8,0a4,4 0 0 1 8,0m-1.5,0a2.5,2.5 0 1 1 -5,0a2.5,2.5 0 0 1 5,0" clip-rule="evenodd" id="svg_2"/>
  <path fill="currentColor" fill-rule="evenodd" d="m22.687,187.452a12,12 0 0 1 -0.635,-1.813q0,-0.012 0.003,-0.061a0.9,0.9 0 0 1 0.06,-0.216a0.9,0.9 0 0 1 0.11,-0.195a0.3,0.3 0 0 1 0.042,-0.046a11.7,11.7 0 0 1 1.73,-0.832l0.866,-0.335l0.087,-0.924c0.063,-0.673 0.07,-1.362 0.003,-2.059l-0.087,-0.924l-0.866,-0.335a11.6,11.6 0 0 1 -1.733,-0.833a0.3,0.3 0 0 1 -0.041,-0.046a0.9,0.9 0 0 1 -0.11,-0.195a0.9,0.9 0 0 1 -0.06,-0.216a0.4,0.4 0 0 1 -0.004,-0.06c0.16,-0.62 0.374,-1.223 0.637,-1.818l0.374,-0.848l-0.591,-0.714a11,11 0 0 0 -1.459,-1.453l-0.714,-0.591l-0.848,0.375c-0.591,0.261 -1.194,0.476 -1.812,0.635q-0.012,0.002 -0.061,-0.004a0.86,0.86 0 0 1 -0.457,-0.211a11.5,11.5 0 0 1 -0.832,-1.73l-0.334,-0.865l-0.924,-0.088a11,11 0 0 0 -2.06,-0.003l-0.923,0.088l-0.335,0.864a12,12 0 0 1 -0.833,1.734a0.4,0.4 0 0 1 -0.046,0.041a0.9,0.9 0 0 1 -0.412,0.17q-0.049,0.006 -0.06,0.004a11.7,11.7 0 0 1 -1.818,-0.637l-0.848,-0.374l-0.714,0.591c-0.54,0.446 -1.022,0.937 -1.453,1.458l-0.591,0.714l0.375,0.849q0.395,0.889 0.635,1.812q0.001,0.012 -0.004,0.061a0.9,0.9 0 0 1 -0.06,0.216a0.9,0.9 0 0 1 -0.11,0.195a0.3,0.3 0 0 1 -0.041,0.046a11.5,11.5 0 0 1 -1.73,0.832l-0.865,0.335l-0.088,0.923c-0.064,0.675 -0.069,1.364 -0.003,2.06l0.087,0.923l0.865,0.335c0.605,0.234 1.184,0.509 1.734,0.834q0.01,0.008 0.04,0.046a0.9,0.9 0 0 1 0.111,0.195a0.9,0.9 0 0 1 0.06,0.216a0.4,0.4 0 0 1 0.004,0.061a12,12 0 0 1 -0.637,1.818l-0.374,0.847l0.59,0.714a11,11 0 0 0 1.46,1.453l0.713,0.591l0.848,-0.374a11.6,11.6 0 0 1 1.813,-0.636q0.012,-0.001 0.06,0.004c0.06,0.007 0.136,0.026 0.217,0.06a1,1 0 0 1 0.196,0.11q0.038,0.032 0.046,0.042c0.324,0.548 0.598,1.125 0.832,1.73l0.335,0.866l0.924,0.086c0.673,0.063 1.362,0.069 2.058,0.003l0.922,-0.087l0.335,-0.865c0.235,-0.605 0.51,-1.184 0.835,-1.734a0.4,0.4 0 0 1 0.046,-0.041a1,1 0 0 1 0.195,-0.11a0.8,0.8 0 0 1 0.216,-0.06q0.05,-0.005 0.061,-0.004a11.7,11.7 0 0 1 1.817,0.637l0.848,0.374l0.714,-0.591a11,11 0 0 0 1.453,-1.458l0.59,-0.714l-0.374,-0.848zm-4.713,1.138c0.72,0.182 1.414,0.429 2.088,0.727c0.46,-0.382 0.878,-0.805 1.253,-1.259a13,13 0 0 1 -0.726,-2.084c-0.168,-0.723 0.25,-1.732 0.88,-2.124c0.638,-0.38 1.302,-0.696 1.987,-0.96c0.056,-0.587 0.06,-1.182 0.004,-1.778a13,13 0 0 1 -1.99,-0.962c-0.631,-0.392 -1.05,-1.4 -0.88,-2.124c0.183,-0.72 0.43,-1.414 0.726,-2.088a9.5,9.5 0 0 0 -1.258,-1.253c-0.672,0.297 -1.365,0.543 -2.084,0.725c-0.724,0.169 -1.732,-0.249 -2.124,-0.88a13,13 0 0 1 -0.96,-1.987a9.4,9.4 0 0 0 -1.778,-0.002a13,13 0 0 1 -0.961,1.989c-0.393,0.631 -1.402,1.049 -2.125,0.88a13,13 0 0 1 -2.088,-0.726c-0.46,0.381 -0.877,0.804 -1.253,1.258c0.296,0.672 0.543,1.365 0.725,2.084c0.169,0.724 -0.249,1.732 -0.88,2.124c-0.637,0.38 -1.302,0.696 -1.986,0.961a9.4,9.4 0 0 0 -0.004,1.777c0.686,0.265 1.351,0.581 1.99,0.962c0.631,0.392 1.049,1.401 0.88,2.124c-0.182,0.721 -0.43,1.414 -0.727,2.088c0.382,0.461 0.805,0.878 1.26,1.253a13,13 0 0 1 2.083,-0.725c0.723,-0.169 1.732,0.249 2.125,0.88c0.379,0.637 0.694,1.302 0.96,1.987c0.586,0.055 1.18,0.059 1.776,0.003a13,13 0 0 1 0.963,-1.99c0.392,-0.631 1.4,-1.049 2.124,-0.88" clip-rule="evenodd" id="svg_3"/>
 </g>

</svg>